<svg width="22" height="12" viewBox="0 0 22 12" fill="none" xmlns="http://www.w3.org/2000/svg">
<path fill-rule="evenodd" clip-rule="evenodd" d="M1.98214 2.06375C3.01202 1.01862 4.41239 0.452637 5.85304 0.452637H9.01162C9.56391 0.452637 10.0116 0.900352 10.0116 1.45264C10.0116 2.00492 9.56391 2.45264 9.01162 2.45264H5.85304C4.93441 2.45264 4.05133 2.81337 3.40671 3.46753C2.75193 4.132 2.38571 5.0149 2.40046 5.95534C2.40062 5.96581 2.40062 5.97628 2.40046 5.98674C2.38567 6.92708 2.75203 7.81014 3.40671 8.47451C4.07905 9.15681 4.92777 9.50877 5.83396 9.50878H8.99253C9.54481 9.50878 9.99253 9.9565 9.99253 10.5088C9.99253 11.0611 9.54481 11.5088 8.99253 11.5088H5.83393C4.38073 11.5088 3.02221 10.9338 1.98214 9.8783C0.966171 8.84729 0.381344 7.45779 0.40048 5.971C0.381404 4.48428 0.965999 3.09493 1.98214 2.06375L2.6301 2.70226L1.98214 2.06375ZM11.9884 1.5106C11.9884 0.958317 12.4361 0.510602 12.9884 0.510602H16.147C17.6034 0.510623 18.98 1.10718 19.9988 2.14109C21.0155 3.17278 21.5974 4.55976 21.5995 6.02108C21.6207 7.51079 21.0359 8.90324 20.0179 9.93626C18.988 10.9814 17.5877 11.5474 16.147 11.5474H12.9884C12.4361 11.5474 11.9884 11.0997 11.9884 10.5474C11.9884 9.99509 12.4361 9.54737 12.9884 9.54737H16.147C17.0656 9.54737 17.9487 9.18664 18.5933 8.53248C19.2481 7.868 19.6143 6.9851 19.5996 6.04467L19.5995 6.02899C19.5995 5.09899 19.2303 4.2106 18.5742 3.54487C17.9186 2.87949 17.05 2.51062 16.147 2.5106H12.9884C12.4361 2.5106 11.9884 2.06289 11.9884 1.5106ZM15.7282 6.95777L6.25247 6.95777C5.70018 6.95777 5.25247 6.51005 5.25247 5.95777C5.25247 5.40548 5.70018 4.95777 6.25247 4.95777L15.7282 4.95777C16.2805 4.95777 16.7282 5.40548 16.7282 5.95777C16.7282 6.51005 16.2805 6.95777 15.7282 6.95777Z" fill="black"/>
</svg>
