<svg width="22" height="22" viewBox="0 0 22 22" fill="none" xmlns="http://www.w3.org/2000/svg">
<path fill-rule="evenodd" clip-rule="evenodd" d="M11.0682 1.23325C11.1603 0.688704 11.6765 0.321945 12.221 0.414072C14.5623 0.810184 16.6959 1.9189 18.388 3.60249L18.389 3.60354C20.0825 5.2935 21.1888 7.42417 21.5858 9.76084C21.6783 10.3053 21.3119 10.8217 20.7674 10.9142C20.2229 11.0067 19.7065 10.6403 19.614 10.0958C19.2874 8.17307 18.3789 6.41907 16.9766 5.01954C15.5729 3.62312 13.814 2.712 11.8874 2.38605C11.3428 2.29392 10.9761 1.7778 11.0682 1.23325ZM4.29397 3.71536L2.7539 5.25228C2.54161 5.46414 2.43794 5.6864 2.41201 5.98555C2.35967 6.62682 2.47109 7.35985 2.865 8.41236L2.86605 8.41516C3.51035 10.1525 4.48909 11.792 5.99329 13.6016C7.7948 15.7472 9.95752 17.4353 12.4182 18.6245C13.3435 19.066 14.4624 19.5235 15.6213 19.5975L15.624 19.5977C15.6537 19.5997 15.693 19.6001 15.7683 19.6001C16.2112 19.6001 16.4863 19.4767 16.7475 19.2034C16.9294 18.9938 17.3068 18.6104 17.6098 18.3065C17.7744 18.1413 17.9298 17.9869 18.0439 17.874L18.0818 17.8366C18.0986 17.7856 18.1146 17.7286 18.1256 17.6716C18.1313 17.6423 18.1349 17.6164 18.137 17.5943L15.7248 15.187L14.8534 16.0566C14.8513 16.0587 14.849 16.061 14.8465 16.0635C14.7359 16.1743 14.2473 16.6641 13.4509 16.6641C13.1251 16.6641 12.8266 16.5822 12.551 16.4447C12.5177 16.428 12.4909 16.4126 12.474 16.4026C12.4656 16.3977 12.4578 16.3929 12.4517 16.3891C12.4397 16.3824 12.4277 16.3753 12.416 16.368C12.3298 16.3147 12.2183 16.2581 12.0427 16.1705L12.0287 16.1635C11.8532 16.0759 11.6225 15.9609 11.3916 15.8148C9.82455 14.8257 8.41897 13.5453 7.10271 11.9314C7.09131 11.9184 7.08024 11.9051 7.06952 11.8916C6.33552 10.9615 5.82171 10.1414 5.4512 9.24571C5.4423 9.22419 5.43416 9.20238 5.42678 9.18029L5.41304 9.13916L5.40813 9.12404C5.35219 8.94726 5.26374 8.62536 5.30866 8.2381C5.35488 7.83958 5.5314 7.45463 5.85401 7.11718C5.90188 7.06272 5.94224 7.02821 5.95886 7.01399M5.95997 7.01305C6.06132 6.92241 6.12624 6.86631 6.17277 6.82766C6.18768 6.81528 6.20054 6.80483 6.21189 6.79575C6.22576 6.78161 6.24221 6.76475 6.2642 6.7422C6.29354 6.71211 6.33275 6.67192 6.38884 6.61461C6.39567 6.60763 6.40261 6.60074 6.40964 6.59397C6.49014 6.51641 6.56244 6.44338 6.64365 6.36135C6.68899 6.31555 6.73711 6.26696 6.79097 6.2132C6.79117 6.21301 6.79078 6.21339 6.79097 6.2132C6.79078 6.21301 6.79117 6.21224 6.79097 6.21205L5.54072 4.96435L5.52991 4.9534C5.4599 4.88135 5.38948 4.80997 5.31651 4.736C5.24426 4.66276 5.16875 4.58622 5.0945 4.50973C4.81704 4.22375 4.56573 3.96896 4.30568 3.72646C4.30175 3.72279 4.29784 3.71909 4.29397 3.71536M18.9329 18.4017C19.8328 18.8377 19.833 18.8374 19.8331 18.8371L19.8339 18.8354L19.8352 18.8328L19.8382 18.8264L19.8462 18.8092C19.8524 18.7958 19.8602 18.7786 19.8692 18.7579C19.8871 18.7166 19.9103 18.6606 19.9355 18.5931C19.9847 18.461 20.0469 18.2706 20.0893 18.0509C20.1591 17.6897 20.2477 16.8713 19.6333 16.262C19.6326 16.2613 19.6319 16.2606 19.6312 16.2599L17.1159 13.7498C16.8919 13.5105 16.4169 13.1102 15.7362 13.1102C15.0333 13.1102 14.539 13.5448 14.3383 13.7451L13.4406 14.641C13.4384 14.6432 13.4365 14.6451 13.4348 14.6468C13.2716 14.5484 13.0953 14.4605 12.9538 14.3899L12.9356 14.3809C12.7465 14.2865 12.5989 14.212 12.4606 14.1245L12.4596 14.1238C11.0944 13.2622 9.84086 12.1282 8.63486 10.6456C8.62989 10.6395 8.62486 10.6335 8.61976 10.6275C7.98336 9.81811 7.58885 9.17149 7.31247 8.51277C7.31014 8.50525 7.30813 8.4985 7.30639 8.49238C7.30734 8.49143 7.3083 8.49047 7.30925 8.48951C7.39126 8.41638 7.43186 8.38178 7.45065 8.36617C7.45909 8.35916 7.46262 8.35641 7.46373 8.35555L7.4729 8.34843C7.47812 8.34438 7.48895 8.33594 7.50179 8.32543C7.55857 8.27893 7.60443 8.23217 7.63134 8.20475C7.63278 8.20328 7.63417 8.20187 7.6355 8.20051C7.65006 8.18568 7.6708 8.16443 7.6979 8.13665C7.72719 8.10664 7.7639 8.06901 7.80827 8.02366C7.90158 7.93342 7.99908 7.83502 8.08724 7.74603C8.12859 7.7043 8.16789 7.66464 8.20374 7.62886C8.54144 7.29185 8.86144 6.81881 8.86144 6.21263C8.86144 5.60645 8.54144 5.1334 8.20374 4.79639L6.95887 3.55407C6.88537 3.47848 6.81232 3.40443 6.74268 3.33384L6.73974 3.33086C6.66665 3.25677 6.59739 3.18655 6.52974 3.11685M2.9255 2.2562C3.26453 1.93858 3.73515 1.66147 4.30531 1.66147C4.99435 1.66147 5.47132 2.06499 5.68033 2.27357L5.68229 2.27553C5.97619 2.55024 6.2525 2.83111 6.52974 3.11685M2.9255 2.2562C2.91782 2.26339 2.91026 2.2707 2.90281 2.27814ZM2.90281 2.27814L1.34113 3.83662ZM1.34113 3.83662C0.793585 4.38305 0.48507 5.04702 0.419167 5.81651ZM10.8847 5.1607C10.976 4.61601 11.4916 4.24846 12.0363 4.33975C13.4452 4.57587 14.7231 5.24219 15.7374 6.25435C16.7534 7.26831 17.4147 8.54387 17.656 9.9461C17.7497 10.4904 17.3844 11.0075 16.8401 11.1012C16.2958 11.1949 15.7787 10.8296 15.685 10.2853C15.5142 9.29269 15.0488 8.39277 14.3246 7.67C13.5985 6.94543 12.6966 6.4783 11.7057 6.31224C11.161 6.22095 10.7935 5.70539 10.8847 5.1607ZM0.419167 5.81651L0.418876 5.81998ZM0.418876 5.81998C0.334225 6.85061 0.534199 7.89007 0.991354 9.11196ZM0.991354 9.11196C1.72991 11.1029 2.83893 12.9359 4.45687 14.882L4.45991 14.8857C6.44036 17.2449 8.82854 19.1115 11.5505 20.4265L11.5547 20.4285C12.5245 20.8913 13.9317 21.4931 15.4912 21.5933" fill="black"/>
</svg>
