<svg width="26" height="30" viewBox="0 0 26 30" fill="none" xmlns="http://www.w3.org/2000/svg">
<g filter="url(#filter0_d_204_4876)">
<path fill-rule="evenodd" clip-rule="evenodd" d="M13 2.3999C9.40293 2.3999 6.48694 5.31589 6.48694 8.91294C6.48694 9.93223 6.87541 11.1201 7.54464 12.3842C8.20706 13.6354 9.1024 14.8831 10.0174 16.0014C10.9298 17.1166 11.8449 18.0828 12.5332 18.7711C12.7044 18.9423 12.8612 19.0959 13 19.23C13.1388 19.0959 13.2956 18.9423 13.4668 18.7711C14.155 18.0828 15.0702 17.1166 15.9825 16.0014C16.8976 14.8831 17.7929 13.6354 18.4553 12.3842C19.1246 11.1201 19.513 9.93223 19.513 8.91294C19.513 5.31589 16.597 2.3999 13 2.3999ZM13 20.5999C12.3356 21.3473 12.3355 21.3472 12.3353 21.347L12.3332 21.3451L12.328 21.3405L12.3096 21.324C12.2939 21.3099 12.2712 21.2894 12.2421 21.2629C12.1839 21.2098 12.0998 21.1325 11.9936 21.0331C11.7812 20.8341 11.4798 20.5461 11.119 20.1853C10.3985 19.4648 9.4354 18.4485 8.4695 17.2679C7.50626 16.0906 6.52334 14.7296 5.77706 13.32C5.0376 11.9232 4.48694 10.398 4.48694 8.91294C4.48694 4.21132 8.29836 0.399902 13 0.399902C17.7016 0.399902 21.513 4.21132 21.513 8.91294C21.513 10.398 20.9624 11.9232 20.2229 13.32C19.4766 14.7296 18.4937 16.0906 17.5305 17.2679C16.5646 18.4485 15.6014 19.4648 14.881 20.1853C14.5202 20.5461 14.2188 20.8341 14.0064 21.0331C13.9001 21.1325 13.8161 21.2098 13.7578 21.2629C13.7287 21.2894 13.7061 21.3099 13.6904 21.324L13.672 21.3405L13.6668 21.3451L13.6652 21.3465C13.665 21.3467 13.6643 21.3473 13 20.5999ZM13 20.5999L13.6643 21.3473L13 21.9379L12.3353 21.347L13 20.5999ZM13.0003 7.20005C12.2271 7.20005 11.6003 7.82686 11.6003 8.60005C11.6003 9.37325 12.2271 10.0001 13.0003 10.0001C13.7735 10.0001 14.4003 9.37325 14.4003 8.60005C14.4003 7.82686 13.7735 7.20005 13.0003 7.20005ZM9.60029 8.60005C9.60029 6.72229 11.1225 5.20005 13.0003 5.20005C14.8781 5.20005 16.4003 6.72229 16.4003 8.60005C16.4003 10.4778 14.8781 12.0001 13.0003 12.0001C11.1225 12.0001 9.60029 10.4778 9.60029 8.60005Z" fill="black"/>
</g>
<defs>
<filter id="filter0_d_204_4876" x="0.486938" y="0.399902" width="25.0261" height="29.5381" filterUnits="userSpaceOnUse" color-interpolation-filters="sRGB">
<feFlood flood-opacity="0" result="BackgroundImageFix"/>
<feColorMatrix in="SourceAlpha" type="matrix" values="0 0 0 0 0 0 0 0 0 0 0 0 0 0 0 0 0 0 127 0" result="hardAlpha"/>
<feOffset dy="4"/>
<feGaussianBlur stdDeviation="2"/>
<feComposite in2="hardAlpha" operator="out"/>
<feColorMatrix type="matrix" values="0 0 0 0 0 0 0 0 0 0 0 0 0 0 0 0 0 0 0.25 0"/>
<feBlend mode="normal" in2="BackgroundImageFix" result="effect1_dropShadow_204_4876"/>
<feBlend mode="normal" in="SourceGraphic" in2="effect1_dropShadow_204_4876" result="shape"/>
</filter>
</defs>
</svg>
