<svg width="22" height="18" viewBox="0 0 22 18" fill="none" xmlns="http://www.w3.org/2000/svg">
<path fill-rule="evenodd" clip-rule="evenodd" d="M2.40235 4.22083C2.40073 4.24844 2.3999 4.27627 2.3999 4.3043V13.6956C2.3999 13.7546 2.40355 13.8127 2.41062 13.8697L7.28634 8.90371C7.47748 8.70902 7.72871 8.6091 7.98153 8.60447L2.40235 4.22083ZM3.96395 2.9043L11.0208 8.44893L18.5287 2.94312C18.4232 2.91774 18.3131 2.9043 18.1999 2.9043H3.96395ZM19.5999 4.6377L14.2706 8.54586L19.5999 13.4311V4.6377ZM18.4346 15.076L12.7242 9.84145C12.6914 9.81142 12.6611 9.77971 12.6333 9.74656L11.5913 10.5107C11.2294 10.7761 10.735 10.7679 10.3821 10.4906L8.97584 9.38571C9.04714 9.70546 8.96006 10.0537 8.71346 10.3049L4.00985 15.0956H18.1999C18.2799 15.0956 18.3583 15.0889 18.4346 15.076ZM0.399902 4.3043C0.399902 2.42653 1.92213 0.904297 3.7999 0.904297H18.1999C20.0777 0.904297 21.5999 2.42653 21.5999 4.3043V13.6956C21.5999 15.5734 20.0777 17.0956 18.1999 17.0956H3.7999C1.92213 17.0956 0.399902 15.5734 0.399902 13.6956V4.3043Z" fill="black"/>
</svg>
