<svg width="22" height="22" viewBox="0 0 22 22" fill="none" xmlns="http://www.w3.org/2000/svg">
<path fill-rule="evenodd" clip-rule="evenodd" d="M10.5439 0.509997C10.8303 0.363204 11.1698 0.363204 11.4562 0.509997L21.0562 5.43074C21.39 5.60187 21.6 5.94548 21.6 6.32065C21.6 6.69582 21.39 7.03942 21.0562 7.21055L18.2521 8.64784L21.0562 10.0851C21.39 10.2563 21.6 10.5999 21.6 10.975C21.6 11.3502 21.39 11.6938 21.0562 11.8649L18.2036 13.3271L21.0562 14.7893C21.39 14.9604 21.6 15.304 21.6 15.6792C21.6 16.0543 21.39 16.3979 21.0562 16.5691L11.4562 21.4898C11.1698 21.6366 10.8303 21.6366 10.5439 21.4898L0.943879 16.5691C0.610015 16.3979 0.400024 16.0543 0.400024 15.6792C0.400024 15.304 0.610015 14.9604 0.943879 14.7893L3.79644 13.3271L0.943879 11.8649C0.610015 11.6938 0.400024 11.3502 0.400024 10.975C0.400024 10.5999 0.610015 10.2563 0.943879 10.0851L3.74792 8.64784L0.943879 7.21055C0.610015 7.03942 0.400024 6.69582 0.400024 6.32065C0.400024 5.94548 0.610015 5.60187 0.943879 5.43074L10.5439 0.509997ZM5.9402 9.77155L3.59231 10.975L11 14.7721L18.4077 10.975L16.0598 9.77155L11.4562 12.1313C11.1698 12.2781 10.8303 12.2781 10.5439 12.1313L5.9402 9.77155ZM5.98872 14.4508L3.59231 15.6792L11 19.4762L18.4077 15.6792L16.0113 14.4508L11.4562 16.7857C11.1698 16.9325 10.8303 16.9325 10.5439 16.7857L5.98872 14.4508ZM3.59231 6.32065L11 10.1177L18.4077 6.32065L11 2.52362L3.59231 6.32065Z" fill="black"/>
</svg>
