<svg width="30" height="30" viewBox="0 0 30 30" fill="none" xmlns="http://www.w3.org/2000/svg">
<g filter="url(#filter0_d_203_4872)">
<path fill-rule="evenodd" clip-rule="evenodd" d="M6.45751 9.9999H9.82154C9.92404 7.63261 10.3878 5.47076 11.114 3.81086C11.2088 3.59411 11.3092 3.38355 11.415 3.18044C8.74381 4.40711 6.80927 6.9623 6.45751 9.9999ZM15 0.399902C9.14577 0.399902 4.39999 5.14568 4.39999 10.9999C4.39999 16.8541 9.14577 21.5999 15 21.5999C20.8542 21.5999 25.6 16.8541 25.6 10.9999C25.6 5.14568 20.8542 0.399902 15 0.399902ZM15 2.3999C14.751 2.3999 14.4349 2.51106 14.0602 2.87327C13.6808 3.24013 13.2933 3.81927 12.9463 4.6125C12.3457 5.98533 11.9249 7.86479 11.8236 9.9999H18.1764C18.0751 7.86479 17.6543 5.98533 17.0537 4.6125C16.7066 3.81927 16.3192 3.24013 15.9398 2.87327C15.5651 2.51106 15.249 2.3999 15 2.3999ZM20.1784 9.9999C20.0759 7.63261 19.6122 5.47076 18.886 3.81086C18.7912 3.59411 18.6908 3.38355 18.5849 3.18044C21.2562 4.40711 23.1907 6.9623 23.5425 9.9999H20.1784ZM18.1764 11.9999H11.8236C11.9249 14.135 12.3457 16.0145 12.9463 17.3873C13.2933 18.1805 13.6808 18.7597 14.0602 19.1265C14.4349 19.4887 14.751 19.5999 15 19.5999C15.249 19.5999 15.5651 19.4887 15.9398 19.1265C16.3192 18.7597 16.7066 18.1805 17.0537 17.3873C17.6543 16.0145 18.0751 14.135 18.1764 11.9999ZM18.5849 18.8194C18.6908 18.6163 18.7912 18.4057 18.886 18.1889C19.6122 16.529 20.0759 14.3672 20.1784 11.9999H23.5425C23.1907 15.0375 21.2562 17.5927 18.5849 18.8194ZM11.415 18.8194C11.3092 18.6163 11.2088 18.4057 11.114 18.1889C10.3878 16.529 9.92404 14.3672 9.82154 11.9999H6.45751C6.80927 15.0375 8.74382 17.5927 11.415 18.8194Z" fill="black"/>
</g>
<defs>
<filter id="filter0_d_203_4872" x="0.399994" y="0.399902" width="29.2" height="29.2002" filterUnits="userSpaceOnUse" color-interpolation-filters="sRGB">
<feFlood flood-opacity="0" result="BackgroundImageFix"/>
<feColorMatrix in="SourceAlpha" type="matrix" values="0 0 0 0 0 0 0 0 0 0 0 0 0 0 0 0 0 0 127 0" result="hardAlpha"/>
<feOffset dy="4"/>
<feGaussianBlur stdDeviation="2"/>
<feComposite in2="hardAlpha" operator="out"/>
<feColorMatrix type="matrix" values="0 0 0 0 0 0 0 0 0 0 0 0 0 0 0 0 0 0 0.25 0"/>
<feBlend mode="normal" in2="BackgroundImageFix" result="effect1_dropShadow_203_4872"/>
<feBlend mode="normal" in="SourceGraphic" in2="effect1_dropShadow_203_4872" result="shape"/>
</filter>
</defs>
</svg>
